<?xml version="1.0" encoding="utf-8"?>
<!-- Generator: Adobe Illustrator 26.2.1, SVG Export Plug-In . SVG Version: 6.00 Build 0)  -->
<svg version="1.1" id="Layer_1" xmlns="http://www.w3.org/2000/svg" xmlns:xlink="http://www.w3.org/1999/xlink" x="0px" y="0px"
	 viewBox="0 0 24 24" style="enable-background:new 0 0 24 24;" xml:space="preserve">
<path d="M8,24c-0.4,0-0.7-0.1-1-0.4l-6.7-7.1c-0.4-0.4-0.5-1-0.3-1.4c0.2-0.5,0.7-0.8,1.2-0.8h21.3c0.7,0,1.3,0.6,1.3,1.3
	c0,0.7-0.6,1.3-1.3,1.3H4.4L9,21.8c0.5,0.5,0.5,1.4-0.1,1.9C8.7,23.9,8.3,24,8,24z"/>
<path d="M22.7,9.8H1.3C0.6,9.8,0,9.2,0,8.4s0.6-1.3,1.3-1.3h18.3L15,2.2c-0.5-0.5-0.5-1.4,0.1-1.9c0.5-0.5,1.4-0.5,1.9,0.1l6.7,7.1
	c0.4,0.4,0.5,1,0.2,1.4C23.7,9.5,23.2,9.8,22.7,9.8z"/>
</svg>
