<?xml version="1.0" encoding="utf-8"?>
<!-- Generator: Adobe Illustrator 26.2.1, SVG Export Plug-In . SVG Version: 6.00 Build 0)  -->
<svg version="1.1" id="Layer_1" xmlns="http://www.w3.org/2000/svg" xmlns:xlink="http://www.w3.org/1999/xlink" x="0px" y="0px"
	 viewBox="0 0 24 24" style="enable-background:new 0 0 24 24;" xml:space="preserve">
<style type="text/css">
	.st0{fill:#202020;}
</style>
<path class="st0" d="M12,16.6c-2.5,0-4.6-2.1-4.6-4.6S9.5,7.4,12,7.4c2.5,0,4.6,2.1,4.6,4.6S14.5,16.6,12,16.6z M12,9.2
	c-1.5,0-2.8,1.2-2.8,2.8s1.2,2.8,2.8,2.8c1.5,0,2.8-1.2,2.8-2.8S13.5,9.2,12,9.2z"/>
<path class="st0" d="M12.9,24h-1.8c-1.6,0-2.8-1.3-2.8-2.8c0-0.5-0.4-0.9-0.7-1.1C7.4,20,7.3,20,7.2,19.9c-0.4-0.2-0.9-0.4-1.3-0.1
	c-1.4,0.8-3.1,0.3-3.9-1l-0.9-1.5c-0.4-0.7-0.5-1.4-0.3-2.2c0.2-0.7,0.7-1.3,1.3-1.7c0.4-0.2,0.6-0.8,0.6-1.2l0-0.2l0-0.2
	c0-0.4-0.1-0.9-0.6-1.2c-0.7-0.4-1.1-1-1.3-1.7S0.7,7.4,1.1,6.7L2,5.3c0.8-1.3,2.5-1.8,3.9-1c0.4,0.3,1,0.1,1.3-0.1
	C7.3,4,7.4,4,7.5,3.9c0.4-0.2,0.7-0.6,0.7-1.1C8.3,1.3,9.5,0,11.1,0h1.8c1.6,0,2.8,1.3,2.8,2.8c0,0.5,0.4,0.9,0.7,1.1
	C16.6,4,16.7,4,16.8,4.1c0.4,0.2,0.9,0.4,1.3,0.1c1.4-0.8,3.1-0.3,3.9,1l0.9,1.5c0.4,0.7,0.5,1.4,0.3,2.2s-0.7,1.3-1.3,1.7
	c-0.4,0.2-0.6,0.8-0.6,1.2l0,0.2l0,0.2c0,0.4,0.1,0.9,0.6,1.2c0.7,0.4,1.1,1,1.3,1.7c0.2,0.7,0.1,1.5-0.3,2.2L22,18.7
	c-0.8,1.3-2.5,1.8-3.9,1c-0.4-0.3-1-0.1-1.3,0.1c-0.1,0.1-0.2,0.1-0.4,0.2c-0.4,0.2-0.7,0.6-0.7,1.1C15.7,22.7,14.5,24,12.9,24z
	 M6.4,17.8c0.6,0,1.2,0.2,1.8,0.5c0.1,0.1,0.2,0.1,0.3,0.2c1.1,0.6,1.7,1.6,1.7,2.7c0,0.5,0.4,1,1,1h1.8c0.5,0,1-0.4,1-1
	c0-1.1,0.7-2.1,1.7-2.7c0.1-0.1,0.2-0.1,0.3-0.2c1-0.6,2.3-0.7,3.2-0.1c0.5,0.3,1.1,0.1,1.4-0.4l0.9-1.5c0.1-0.2,0.2-0.5,0.1-0.7
	c-0.1-0.3-0.2-0.5-0.5-0.6c-1-0.5-1.5-1.6-1.5-2.8l0-0.2l0-0.2c0-1.2,0.5-2.3,1.5-2.8c0.2-0.1,0.4-0.3,0.5-0.6
	c0.1-0.3,0-0.5-0.1-0.7l-0.9-1.5c-0.3-0.5-0.9-0.6-1.4-0.4c-0.9,0.5-2.2,0.5-3.2-0.1c-0.1-0.1-0.2-0.1-0.3-0.2
	c-1.1-0.6-1.7-1.6-1.7-2.7c0-0.5-0.4-1-1-1h-1.8c-0.5,0-1,0.4-1,1c0,1.1-0.7,2.1-1.7,2.7C8.3,5.6,8.2,5.6,8.1,5.7
	c-1,0.6-2.3,0.7-3.2,0.1C4.4,5.5,3.8,5.7,3.6,6.2L2.7,7.7C2.6,7.9,2.5,8.2,2.6,8.4C2.7,8.7,2.8,8.9,3,9c0.9,0.5,1.5,1.6,1.5,2.8
	l0,0.2l0,0.2C4.6,13.4,4,14.4,3,15c-0.2,0.1-0.4,0.3-0.5,0.6c-0.1,0.3,0,0.5,0.1,0.7l0.9,1.5c0.3,0.5,0.9,0.6,1.4,0.4
	C5.4,17.9,5.9,17.8,6.4,17.8z"/>
</svg>
