<?xml version="1.0" encoding="utf-8"?>
<!-- Generator: Adobe Illustrator 26.2.1, SVG Export Plug-In . SVG Version: 6.00 Build 0)  -->
<svg version="1.1" id="Layer_1" xmlns="http://www.w3.org/2000/svg" xmlns:xlink="http://www.w3.org/1999/xlink" x="0px" y="0px"
	 viewBox="0 0 24 24" style="enable-background:new 0 0 24 24;" xml:space="preserve">
<style type="text/css">
	.st0{fill:#202020;}
</style>
<path class="st0" d="M8.3,10H2.3C1,10,0,11,0,12.3V23c0,0.6,0.5,1,1,1h7.3c0.5,0,1-0.4,1-1V11C9.3,10.5,8.8,10,8.3,10z M2,12.3
	C2,12.1,2.2,12,2.3,12h4.9v10H2V12.3z"/>
<path class="st0" d="M21.7,6h-5.9c-0.5,0-1,0.5-1,1v16c0,0.6,0.5,1,1,1H23c0.5,0,1-0.4,1-1V8.3C24,7,23,6,21.7,6z M22,22h-5.2V8h4.9
	C21.8,8,22,8.1,22,8.3V22z"/>
<path class="st0" d="M14.4,0H9.6C8.3,0,7.3,1,7.3,2.3V23c0,0.6,0.2,1,0.8,1h7.7c0.5,0,1-0.4,1-1V2.3C16.8,1,15.7,0,14.4,0z M9.3,2.3
	C9.3,2.2,9.4,2,9.6,2h4.8c0.2,0,0.3,0.2,0.3,0.3V22H9.3V2.3z"/>
</svg>
